<?xml version="1.0" standalone="no"?>
<!DOCTYPE svg PUBLIC "-//W3C//DTD SVG 20010904//EN"
 "http://www.w3.org/TR/2001/REC-SVG-20010904/DTD/svg10.dtd">
<svg version="1.0" xmlns="http://www.w3.org/2000/svg"
 width="300.000000pt" height="150.000000pt" viewBox="0 0 300.000000 150.000000"
 preserveAspectRatio="xMidYMid meet">

<g transform="translate(0.000000,150.000000) scale(0.100000,-0.100000)"
fill="#000000" stroke="none">
<path d="M190 942 c-43 -21 -89 -97 -71 -115 8 -8 73 -13 196 -15 102 -2 185
-6 185 -9 0 -3 -10 -23 -22 -44 l-21 -39 -205 -2 c-164 -2 -206 -6 -210 -17
-4 -11 33 -13 224 -9 129 3 241 10 256 16 27 11 78 86 78 114 0 25 -21 28
-206 28 -190 0 -189 0 -154 58 l20 32 200 0 c127 0 200 4 200 10 0 6 -79 10
-217 10 -188 0 -223 -2 -253 -18z"/>
<path d="M740 950 c0 -5 -31 -63 -70 -129 -38 -66 -70 -123 -70 -126 0 -3 20
-5 45 -5 44 0 44 0 80 65 l37 65 85 0 c75 0 84 -2 79 -16 -6 -15 -115 -201
-154 -261 -14 -23 -14 -23 37 -23 39 0 53 4 58 17 10 27 224 386 241 406 14
16 12 17 -39 17 l-54 0 -31 -58 -31 -57 -86 -3 c-48 -1 -87 1 -87 5 0 5 15 32
34 61 l35 52 -55 0 c-30 0 -54 -4 -54 -10z"/>
<path d="M1219 951 c-14 -5 -35 -13 -46 -20 -21 -11 -153 -226 -153 -249 0
-29 44 -33 313 -30 237 3 276 5 299 20 14 9 56 70 93 134 l68 118 -23 18 c-20
16 -45 18 -274 17 -138 0 -263 -4 -277 -8z m456 -21 c6 -9 -102 -206 -133
-242 -13 -16 -37 -18 -214 -18 -130 0 -198 4 -198 10 0 19 131 240 148 250 23
13 389 13 397 0z"/>
<path d="M1906 945 c-21 -7 -44 -20 -51 -27 -27 -28 -133 -231 -128 -244 8
-22 56 -25 325 -22 240 3 258 4 284 23 27 21 154 228 154 252 0 27 -56 33
-298 33 -184 -1 -257 -4 -286 -15z m469 -15 c6 -10 -78 -168 -122 -227 l-24
-33 -194 0 c-108 0 -196 4 -200 9 -6 11 119 231 142 249 21 15 388 17 398 2z"/>
<path d="M2545 950 c-4 -6 22 -10 70 -10 91 0 92 14 -7 -154 -39 -67 -73 -124
-75 -128 -2 -5 17 -8 44 -8 l48 1 83 144 84 145 84 0 c49 0 84 4 84 10 0 6
-75 10 -204 10 -126 0 -207 -4 -211 -10z"/>
<path d="M625 644 c46 -17 83 -49 96 -83 5 -13 11 -22 13 -20 2 2 20 30 40 62
l37 57 -113 -1 c-111 0 -112 -1 -73 -15z"/>
<path d="M965 597 c-29 -22 -9 -37 48 -37 48 -1 50 -2 33 -15 -24 -18 -87 -20
-105 -2 -11 10 -13 9 -9 -3 10 -33 138 -19 138 15 0 11 -12 15 -51 15 -36 0
-49 4 -46 13 2 8 25 12 65 12 33 0 58 3 55 7 -8 13 -108 9 -128 -5z"/>
<path d="M1112 574 c-24 -37 -25 -57 -2 -29 8 9 30 15 59 15 50 0 89 19 77 38
-4 7 -31 12 -59 12 -49 0 -54 -3 -75 -36z m116 14 c-3 -7 -25 -14 -51 -16 -39
-3 -46 0 -41 12 8 20 98 23 92 4z"/>
<path d="M1270 579 c-17 -17 -30 -35 -30 -40 0 -14 47 -22 88 -16 38 6 86 49
79 71 -2 6 -27 12 -56 14 -47 3 -55 0 -81 -29z m120 8 c0 -30 -26 -48 -72 -50
-59 -2 -68 7 -38 38 18 19 34 25 67 25 29 0 43 -4 43 -13z"/>
<path d="M1426 569 c-15 -22 -25 -43 -23 -46 3 -2 10 5 17 16 9 17 20 21 61
21 47 0 50 -2 44 -21 -10 -31 10 -15 29 22 9 17 13 35 10 40 -3 5 -29 9 -58 9
-51 0 -54 -2 -80 -41z m124 22 c0 -13 -26 -21 -66 -21 -32 0 -42 8 -27 23 10
10 93 8 93 -2z"/>
<path d="M1628 603 c27 -5 27 -7 1 -49 -29 -47 -15 -43 17 5 19 30 34 41 57
44 18 2 3 4 -33 4 -36 0 -55 -2 -42 -4z"/>
<path d="M1755 597 c-29 -22 -9 -37 48 -37 48 -1 50 -2 33 -15 -24 -18 -87
-20 -105 -2 -11 10 -13 9 -9 -3 10 -33 138 -19 138 15 0 11 -12 15 -51 15 -36
0 -49 4 -47 13 6 16 108 23 108 7 0 -6 5 -8 10 -5 6 4 8 11 5 16 -9 14 -109
11 -130 -4z"/>
</g>
</svg>
